<svg width="26" height="32" viewBox="0 0 26 32" fill="none" xmlns="http://www.w3.org/2000/svg">
<path d="M21.1549 17.2395C21.1201 13.3719 24.3217 11.4903 24.4681 11.4027C22.6549 8.75907 19.8445 8.39787 18.8569 8.36907C16.4965 8.12067 14.2069 9.78147 13.0045 9.78147C11.7781 9.78147 9.92648 8.39307 7.93088 8.43387C5.36288 8.47347 2.96048 9.96027 1.64288 12.2691C-1.07632 16.9767 0.951677 23.8947 3.55688 27.6999C4.86008 29.5635 6.38288 31.6443 8.37608 31.5711C10.3261 31.4907 11.0545 30.3279 13.4077 30.3279C15.7393 30.3279 16.4233 31.5711 18.4561 31.5243C20.5489 31.4907 21.8665 29.6523 23.1241 27.7719C24.6301 25.6359 25.2349 23.5323 25.2589 23.4243C25.2097 23.4075 21.1945 21.8751 21.1549 17.2395Z" fill="white"/>
<path d="M17.3164 5.86774C18.3652 4.55614 19.0828 2.77174 18.8836 0.960938C17.3656 1.02814 15.4672 2.01094 14.374 3.29374C13.4068 4.42414 12.5428 6.27694 12.766 8.01934C14.4712 8.14654 16.222 7.15894 17.3164 5.86774Z" fill="white"/>
</svg>
