<svg width="29" height="31" viewBox="0 0 29 31" fill="none" xmlns="http://www.w3.org/2000/svg">
<path d="M1.47891 0.5C1.11891 0.86 0.878906 1.46 0.878906 2.18V28.7C0.878906 29.42 1.11891 30.02 1.47891 30.38L1.59891 30.5L16.4789 15.62V15.5V15.38L1.47891 0.5Z" fill="url(#paint0_linear_0_728)"/>
<path d="M21.4005 20.6609L16.4805 15.7409V15.5009V15.3809L21.4005 10.4609L21.5205 10.5809L27.4005 13.9409C29.0805 14.9009 29.0805 16.4609 27.4005 17.4209L21.4005 20.6609Z" fill="url(#paint1_linear_0_728)"/>
<path d="M21.5205 20.54L16.4805 15.5L1.48047 30.5C2.08047 31.1 2.92047 31.1 4.00047 30.62L21.5205 20.54Z" fill="url(#paint2_linear_0_728)"/>
<path d="M21.5205 10.4599L4.00047 0.499939C2.92047 -0.100061 2.08047 0.0199392 1.48047 0.619939L16.4805 15.4999L21.5205 10.4599Z" fill="url(#paint3_linear_0_728)"/>
<defs>
<linearGradient id="paint0_linear_0_728" x1="9.92244" y1="-17.4127" x2="-13.9188" y2="-10.966" gradientUnits="userSpaceOnUse">
<stop stop-color="#00A0FF"/>
<stop offset="0.00657445" stop-color="#00A1FF"/>
<stop offset="0.2601" stop-color="#00BEFF"/>
<stop offset="0.5122" stop-color="#00D2FF"/>
<stop offset="0.7604" stop-color="#00DFFF"/>
<stop offset="1" stop-color="#00E3FF"/>
</linearGradient>
<linearGradient id="paint1_linear_0_728" x1="29.6017" y1="3.34457" x2="0.565468" y2="3.34457" gradientUnits="userSpaceOnUse">
<stop stop-color="#FFE000"/>
<stop offset="0.4087" stop-color="#FFBD00"/>
<stop offset="0.7754" stop-color="#FFA500"/>
<stop offset="1" stop-color="#FF9C00"/>
</linearGradient>
<linearGradient id="paint2_linear_0_728" x1="1.09978" y1="7.71683" x2="-18.0587" y2="39.882" gradientUnits="userSpaceOnUse">
<stop stop-color="#FF3A44"/>
<stop offset="1" stop-color="#C31162"/>
</linearGradient>
<linearGradient id="paint3_linear_0_728" x1="-10.1803" y1="-3.60455" x2="-1.6927" y2="10.7783" gradientUnits="userSpaceOnUse">
<stop stop-color="#32A071"/>
<stop offset="0.0685" stop-color="#2DA771"/>
<stop offset="0.4762" stop-color="#15CF74"/>
<stop offset="0.8009" stop-color="#06E775"/>
<stop offset="1" stop-color="#00F076"/>
</linearGradient>
</defs>
</svg>
